<?xml version="1.0" encoding="UTF-8"?>
<svg version="1.1" xmlns="http://www.w3.org/2000/svg" width="16" height="16">
<path d="M0 0 C3.54326216 2.96645204 5.70951793 5.54197104 7 10 C7 10.99 7 11.98 7 13 C2.38 13 -2.24 13 -7 13 C-7 8.71 -7 4.42 -7 0 C-4.19664415 -1.40167793 -2.9650644 -0.96536981 0 0 Z " fill="#387ED1" transform="translate(8,2)"/>
<path d="M0 0 C1.98 0 3.96 0 6 0 C6 2.31 6 4.62 6 7 C5.38125 6.21625 4.7625 5.4325 4.125 4.625 C2.10141339 2.03162353 2.10141339 2.03162353 0 0 Z " fill="#387ED1" transform="translate(9,1)"/>
</svg>
